<?xml version="1.0" encoding="UTF-8"?>
<svg version="1.1" xmlns="http://www.w3.org/2000/svg" width="384" height="131">
<path d="M0 0 C0.33 0.66 0.66 1.32 1 2 C2.65 1.67 4.3 1.34 6 1 C6.33 2.98 6.66 4.96 7 7 C7.37125 6.195625 7.7425 5.39125 8.125 4.5625 C10 2 10 2 13.0625 1.25 C14.031875 1.1675 15.00125 1.085 16 1 C16.66 0.67 17.32 0.34 18 0 C18 0.66 18 1.32 18 2 C18.9590625 1.6596875 18.9590625 1.6596875 19.9375 1.3125 C25.60149382 0.73454145 30.37588412 2.73679876 34.8125 6.1875 C41.22249552 14.42892282 43.17738315 23.66317945 43 34 C41.52130442 42.71753866 37.83331238 49.75001777 31.125 55.4375 C25.55895455 58.28209403 18.01691579 57.90720682 12 57 C9.0390625 54.96875 9.0390625 54.96875 7 53 C7.0721875 54.02738281 7.144375 55.05476563 7.21875 56.11328125 C8.67739238 77.56466786 8.67739238 77.56466786 7 87 C3.7 86.67 0.4 86.34 -3 86 C-3 59.93 -3 33.86 -3 7 C-3.66 7 -4.32 7 -5 7 C-4.67 5.02 -4.34 3.04 -4 1 C-2.68 0.67 -1.36 0.34 0 0 Z M10 13 C10 13.99 10 14.98 10 16 C9.01 16 8.02 16 7 16 C6.85463187 20.39548491 6.76590052 24.79035087 6.6875 29.1875 C6.64560547 30.43337891 6.60371094 31.67925781 6.56054688 32.96289062 C6.26726616 39.16525993 6.26726616 39.16525993 8.06494141 44.94384766 C11.3043735 48.24990046 14.2730525 49.1986354 18.75 49.375 C22.26130022 49.32425867 24.64293141 49.10744169 27.5 47 C32.79956033 40.6405276 32.52768866 32.92632337 32 25 C31.46579089 20.2388613 30.99100238 16.31068057 28.0625 12.4375 C22.06326069 8.256212 15.97677231 9.50140158 10 13 Z " fill="#3A3C3B" transform="translate(17,37)"/>
<path d="M0 0 C1.43034568 0.80962963 2.85277608 1.63446306 4.25 2.5 C4.25 3.16 4.25 3.82 4.25 4.5 C4.91 4.5 5.57 4.5 6.25 4.5 C12.00168633 15.04475828 13.93626171 25.50058662 11.0078125 37.296875 C8.62462885 44.22530583 4.49634653 49.25887267 -2 52.6875 C-11.1656371 55.39552914 -17.6015053 54.17325686 -26 49.8125 C-31.12265403 45.50481366 -34.38839641 39.93093297 -35.59765625 33.3203125 C-36.07889013 24.41131603 -35.53805552 12.69934066 -29.75 5.5 C-21.53874813 -3.16091567 -10.91566843 -5.48112511 0 0 Z M-20.75 8.5 C-26.18906689 16.07584316 -25.65895377 25.58409748 -24.2890625 34.5 C-23.2244321 38.70842133 -22.23062698 41.01937302 -19.125 44.125 C-14.82219901 45.877993 -11.33206948 46.20168223 -6.75 45.5 C-3.79062395 44.24069104 -2.31440502 43.31838728 -0.5 40.6875 C2.48038571 31.99470834 2.70745032 20.12598576 -0.75 11.5 C-3.3498806 8.30014695 -4.84649995 6.80116668 -8.75 5.5 C-13.73758297 5.13054941 -16.79959346 5.31772807 -20.75 8.5 Z " fill="#393B3A" transform="translate(137.75,40.5)"/>
<path d="M0 0 C0.90037489 2.32968288 1.69399187 4.62048858 2.4375 7 C2.8801394 8.37632426 3.32284745 9.75262643 3.765625 11.12890625 C3.97767578 11.79680176 4.18972656 12.46469727 4.40820312 13.15283203 C5.13631808 15.42548786 5.91029395 17.68122325 6.6875 19.9375 C7.64369074 22.7684692 8.3947985 25.58779422 9.0625 28.5 C9.371875 29.655 9.68125 30.81 10 32 C10.66 32.33 11.32 32.66 12 33 C12.38133299 34.9914056 12.71325582 36.99279077 13 39 C13.33 39.66 13.66 40.32 14 41 C14.12375 39.700625 14.2475 38.40125 14.375 37.0625 C14.5859375 34.84765625 14.5859375 34.84765625 15 33 C15.99 32.505 15.99 32.505 17 32 C18.11366827 29.30001909 19.11483328 26.63268709 20.0625 23.875 C20.33126953 23.12734375 20.60003906 22.3796875 20.87695312 21.609375 C22.46432883 17.06496775 23.35517355 12.78591375 24 8 C25.75 4.5625 25.75 4.5625 28 2 C30.75 1.625 30.75 1.625 33 2 C33 1.34 33 0.68 33 0 C35.475 0.495 35.475 0.495 38 1 C38 2.65 38 4.3 38 6 C37.34 6 36.68 6 36 6 C35.87778076 6.70471436 35.75556152 7.40942871 35.62963867 8.13549805 C34.96334421 11.16676321 34.01372616 13.92578751 32.92578125 16.83203125 C32.50804443 17.95359619 32.09030762 19.07516113 31.65991211 20.23071289 C31.21526611 21.41270264 30.77062012 22.59469238 30.3125 23.8125 C29.86205322 25.0183374 29.41160645 26.2241748 28.94750977 27.46655273 C28.0483557 29.87219695 27.14758934 32.27723922 26.24511719 34.68164062 C25.17208439 37.54137824 24.10384872 40.40280978 23.0390625 43.265625 C19.15493404 53.69013193 19.15493404 53.69013193 18 56 C16.56510191 56.13536774 15.12652893 56.23217143 13.6875 56.3125 C12.88699219 56.37050781 12.08648437 56.42851563 11.26171875 56.48828125 C9 56 9 56 7.328125 53.86328125 C5.95145893 50.89535116 4.96267584 48.01982033 4.0625 44.875 C0.70778187 33.57824083 -3.14109694 22.052478 -8.8125 11.6875 C-10.29691167 8.32804201 -10.21788377 5.63139623 -10 2 C-8.71211992 1.46987262 -7.41953322 0.9511671 -6.125 0.4375 C-5.40570313 0.14746094 -4.68640625 -0.14257812 -3.9453125 -0.44140625 C-2 -1 -2 -1 0 0 Z " fill="#383939" transform="translate(226,38)"/>
<path d="M0 0 C1.32 0.33 2.64 0.66 4 1 C5.60744075 6.21468969 5.05870608 11.59904037 5 17 C10.94 17.99 10.94 17.99 17 19 C16.34 21.31 15.68 23.62 15 26 C10.68380697 26.90338924 8.49202386 26.89840477 4 26 C4.33 38.54 4.66 51.08 5 64 C8.9473552 64.78947104 12.04287849 65.09202608 16 65 C16.6875 67.3125 16.6875 67.3125 17 70 C15.62486569 72.02651373 14.51687307 72.79694272 12.25 73.6875 C6.34201754 74.50805312 2.07411101 74.34430044 -3 71 C-6.19132833 66.87810545 -6.48052003 63.0745081 -6.546875 58.03125 C-6.56719788 57.27332153 -6.58752075 56.51539307 -6.60845947 55.73449707 C-6.64853181 54.13776857 -6.68174501 52.54085488 -6.70849609 50.94384766 C-6.74987217 48.50752667 -6.81254358 46.07247466 -6.87890625 43.63671875 C-6.91531213 42.0807579 -6.95050896 40.5247682 -6.984375 38.96875 C-7.0019989 38.24465942 -7.0196228 37.52056885 -7.03778076 36.77453613 C-7.09460671 33.04073083 -6.90789464 29.62803902 -6 26 C-6.99 26.33 -7.98 26.66 -9 27 C-11.125 26.25 -11.125 26.25 -13 25 C-13.33 24.01 -13.66 23.02 -14 22 C-12.5625 19.3125 -12.5625 19.3125 -11 17 C-9.02 17.66 -7.04 18.32 -5 19 C-5 13.72 -5 8.44 -5 3 C-3.35 2.67 -1.7 2.34 0 2 C0 1.34 0 0.68 0 0 Z " fill="#393B3A" transform="translate(170,21)"/>
<path d="M0 0 C0.33 0.66 0.66 1.32 1 2 C4.465 1.505 4.465 1.505 8 1 C8.98844951 4.94647618 8.96191905 8.27392964 8.5625 12.3125 C8.46066406 13.38113281 8.35882813 14.44976562 8.25390625 15.55078125 C8.17011719 16.35902344 8.08632813 17.16726562 8 18 C8.55171875 17.65195312 9.1034375 17.30390625 9.671875 16.9453125 C12.62246243 15.74725519 14.18044514 16.14800017 17.25 16.875 C18.14203125 17.07867187 19.0340625 17.28234375 19.953125 17.4921875 C20.62859375 17.65976562 21.3040625 17.82734375 22 18 C21.67 20.31 21.34 22.62 21 25 C17.37 25 13.74 25 10 25 C8.56624768 30.73500927 8.81403015 36.44934876 8.81469727 42.32666016 C8.81250737 44.49271191 8.79432128 46.65825676 8.77539062 48.82421875 C8.77245691 50.20572743 8.77047197 51.58723852 8.76953125 52.96875 C8.76336792 54.84723633 8.76336792 54.84723633 8.75708008 56.76367188 C8.81388951 60.25946467 8.81388951 60.25946467 11 64 C14.3 64 17.6 64 21 64 C21 66.31 21 68.62 21 71 C16.73752478 73.13123761 12.69147461 73.59793304 8 73 C3.80101959 71.41547909 1.15773081 69.95577479 -1 66 C-1.41421907 62.87758394 -1.34854395 59.78544053 -1.29296875 56.640625 C-1.28872391 55.73624695 -1.28447906 54.8318689 -1.28010559 53.90008545 C-1.26333574 51.01641861 -1.22568669 48.133455 -1.1875 45.25 C-1.17245097 43.29297886 -1.15876295 41.33594674 -1.14648438 39.37890625 C-1.11343774 34.58566725 -1.06166705 29.79295279 -1 25 C-3.64 25 -6.28 25 -9 25 C-8.34 22.03 -7.68 19.06 -7 16 C-5.35 16.33 -3.7 16.66 -2 17 C-2.02320313 16.02417969 -2.04640625 15.04835938 -2.0703125 14.04296875 C-2.08835937 12.77066406 -2.10640625 11.49835937 -2.125 10.1875 C-2.14820313 8.92292969 -2.17140625 7.65835937 -2.1953125 6.35546875 C-2 3 -2 3 0 0 Z " fill="#3A3B3A" transform="translate(302,22)"/>
<path d="M0 0 C0.66 0.99 1.32 1.98 2 3 C3.32 3 4.64 3 6 3 C6.47050781 2.50886719 6.94101563 2.01773438 7.42578125 1.51171875 C9 0 9 0 11.48046875 -0.29296875 C12.37378906 -0.25816406 13.26710938 -0.22335938 14.1875 -0.1875 C15.775625 -0.125625 17.36375 -0.06375 19 0 C18.67 3.3 18.34 6.6 18 10 C16.4325 10.2475 14.865 10.495 13.25 10.75 C8.97692851 11.58892223 6.73824107 12.46310528 4 16 C3.34 16.33 2.68 16.66 2 17 C2.05329468 18.56681519 2.05329468 18.56681519 2.10766602 20.1652832 C2.23800876 24.03962736 2.36117801 27.91417208 2.48217773 31.78881836 C2.53555698 33.4659652 2.59088316 35.14305124 2.64819336 36.82006836 C2.73021822 39.23017266 2.80524581 41.64040861 2.87890625 44.05078125 C2.90594131 44.80087967 2.93297638 45.55097809 2.96083069 46.32380676 C3.05259138 49.52232554 3.02105583 51.93683252 2 55 C-1.3 55 -4.6 55 -8 55 C-8.02505615 53.56688477 -8.0501123 52.13376953 -8.07592773 50.65722656 C-8.17007369 45.34203086 -8.27027703 40.02696365 -8.37231445 34.71191406 C-8.41563606 32.41116338 -8.45731313 30.11038112 -8.49731445 27.80957031 C-8.55508395 24.50315839 -8.61875949 21.196905 -8.68359375 17.890625 C-8.70030624 16.86132874 -8.71701874 15.83203247 -8.73423767 14.77154541 C-8.75418289 13.81085144 -8.77412811 12.85015747 -8.79467773 11.86035156 C-8.81022202 11.01651917 -8.8257663 10.17268677 -8.84178162 9.30328369 C-8.9274985 6.99734035 -8.9274985 6.99734035 -9.57533264 4.82122803 C-10 3 -10 3 -9 1 C-5.98003217 0.45091494 -3.07380605 0 0 0 Z " fill="#3B3C3C" transform="translate(80,38)"/>
<path d="M0 0 C0.33 0.66 0.66 1.32 1 2 C2.65 1.67 4.3 1.34 6 1 C6.33 2.98 6.66 4.96 7 7 C7.37125 6.195625 7.7425 5.39125 8.125 4.5625 C10 2 10 2 13.0625 1.25 C14.031875 1.1675 15.00125 1.085 16 1 C16.66 0.67 17.32 0.34 18 0 C18 0.66 18 1.32 18 2 C18.9590625 1.6596875 18.9590625 1.6596875 19.9375 1.3125 C25.60149382 0.73454145 30.37588412 2.73679876 34.8125 6.1875 C41.5705918 14.87647517 42.0820851 23.37151174 43 34 C36.375 36.875 36.375 36.875 33 38 C33.33 38.99 33.66 39.98 34 41 C31.97721874 44.84024261 29.29737762 48.18060361 25.625 50.5 C19.13419141 51.73634449 15.63173089 51.7551823 10.0625 48.125 C6.18617021 45.37234043 6.18617021 45.37234043 5 43 C4.62061382 38.59087277 4.58250489 34.17317866 4.5 29.75 C4.44585937 28.52152344 4.39171875 27.29304688 4.3359375 26.02734375 C4.2011351 17.1400144 4.2011351 17.1400144 6.50585938 13.85107422 C8.2723593 12.31576981 9.95118413 11.12286492 12 10 C13.2375 9.319375 13.2375 9.319375 14.5 8.625 C17.71676357 7.82080911 20.69927444 7.87055978 24 8 C25.0745356 6.2236068 25.0745356 6.2236068 25 5 C19.08592064 3.67234953 16.1690642 4.1620824 11 7 C10.01 8.485 10.01 8.485 9 10 C6.03824877 9.38722388 4.61941217 8.74627478 2 7 C1.67 6.34 1.34 5.68 1 5 C-0.83479522 10.50760459 -1.33226481 15.4297789 -1.4140625 21.21484375 C-1.43342865 22.07058487 -1.4527948 22.92632599 -1.4727478 23.80799866 C-1.53210914 26.51773383 -1.57875366 29.2275125 -1.625 31.9375 C-1.66321985 33.78452284 -1.70227387 35.63152861 -1.7421875 37.47851562 C-1.83777448 41.98553709 -1.92196424 46.49264188 -2 51 C-2.33 51 -2.66 51 -3 51 C-3 36.48 -3 21.96 -3 7 C-3.66 7 -4.32 7 -5 7 C-4.67 5.02 -4.34 3.04 -4 1 C-2.68 0.67 -1.36 0.34 0 0 Z M10 13 C10 13.99 10 14.98 10 16 C9.01 16 8.02 16 7 16 C6.85463187 20.39548491 6.76590052 24.79035087 6.6875 29.1875 C6.64560547 30.43337891 6.60371094 31.67925781 6.56054688 32.96289062 C6.26726616 39.16525993 6.26726616 39.16525993 8.06494141 44.94384766 C11.3043735 48.24990046 14.2730525 49.1986354 18.75 49.375 C22.26130022 49.32425867 24.64293141 49.10744169 27.5 47 C32.79956033 40.6405276 32.52768866 32.92632337 32 25 C31.46579089 20.2388613 30.99100238 16.31068057 28.0625 12.4375 C22.06326069 8.256212 15.97677231 9.50140158 10 13 Z " fill="#3A3B3B" transform="translate(17,37)"/>
<path d="M0 0 C6.875 0.875 6.875 0.875 8 2 C8.04063832 3.66617115 8.042721 5.33388095 8 7 C7.34 7 6.68 7 6 7 C6 10.3 6 13.6 6 17 C6.66 17 7.32 17 8 17 C7.835 18.02480469 7.67 19.04960938 7.5 20.10546875 C6.70167877 26.48501113 6.93408544 32.89571783 7 39.3125 C7.02546165 41.82938452 7.04651083 44.34631873 7.0625 46.86328125 C7.07410156 47.96969971 7.08570313 49.07611816 7.09765625 50.21606445 C7 53 7 53 6 56 C4.52093108 56.02689216 3.04172517 56.04634621 1.5625 56.0625 C0.73878906 56.07410156 -0.08492188 56.08570313 -0.93359375 56.09765625 C-3 56 -3 56 -4 55 C-4.09340434 53.37325222 -4.11745171 51.74245949 -4.11352539 50.11303711 C-4.11344986 49.07203354 -4.11337433 48.03102997 -4.11329651 46.95848083 C-4.10813522 45.8262056 -4.10297394 44.69393036 -4.09765625 43.52734375 C-4.0962413 42.37456436 -4.09482635 41.22178497 -4.09336853 40.03407288 C-4.08775005 36.33518936 -4.07519442 32.63636536 -4.0625 28.9375 C-4.05748738 26.43684983 -4.05292406 23.93619871 -4.04882812 21.43554688 C-4.03777462 15.29034412 -4.02101852 9.14517631 -4 3 C-3.01 2.67 -2.02 2.34 -1 2 C-0.67 1.34 -0.34 0.68 0 0 Z M6 2 C7 5 7 5 7 5 Z " fill="#393A3A" transform="translate(277,37)"/>
<path d="M0 0 C2.05078125 0.03255208 4.1015625 0.06510417 6.15234375 0.09765625 C8.35578887 6.26053433 8.33526908 11.78320924 8.12890625 18.28125 C8.10388031 19.33675552 8.07885437 20.39226105 8.05307007 21.47975159 C7.97127742 24.83189979 7.87453032 28.18342256 7.77734375 31.53515625 C7.7190626 33.81573014 7.66176025 36.09632926 7.60546875 38.37695312 C7.46575923 43.95087681 7.31264184 49.52428821 7.15234375 55.09765625 C3.85234375 55.09765625 0.55234375 55.09765625 -2.84765625 55.09765625 C-2.87229618 47.42553952 -2.89048748 39.7534456 -2.90258789 32.08129883 C-2.90763002 29.46899006 -2.9144635 26.85668414 -2.9230957 24.24438477 C-2.93516661 20.49885357 -2.9408856 16.75335953 -2.9453125 13.0078125 C-2.95047379 11.8317897 -2.95563507 10.65576691 -2.96095276 9.44410706 C-2.96106606 7.82253944 -2.96106606 7.82253944 -2.96118164 6.16821289 C-2.96340225 5.2111293 -2.96562286 4.25404572 -2.96791077 3.26795959 C-2.81752725 0.55390067 -2.72294769 0.14391901 0 0 Z " fill="#3B3D3C" transform="translate(336.84765625,37.90234375)"/>
<path d="M0 0 C1.5 1.25 1.5 1.25 3 3 C3 4.32 3 5.64 3 7 C2.34 7 1.68 7 1 7 C1.16226074 8.29164062 1.32452148 9.58328125 1.49169922 10.9140625 C2.02681933 15.74914118 2.14505818 20.51425779 2.1328125 25.375 C2.13376923 26.22553955 2.13472595 27.0760791 2.13571167 27.95239258 C2.13638661 29.73046951 2.1345807 31.50854901 2.13037109 33.28662109 C2.1249593 36.02056281 2.13036644 38.75434421 2.13671875 41.48828125 C2.13605889 43.22135453 2.13477964 44.95442771 2.1328125 46.6875 C2.13483673 47.50718262 2.13686096 48.32686523 2.13894653 49.17138672 C2.11498666 54.88501334 2.11498666 54.88501334 1 56 C-0.51928038 56.07179964 -2.04167482 56.08392007 -3.5625 56.0625 C-4.38878906 56.05347656 -5.21507812 56.04445312 -6.06640625 56.03515625 C-6.70449219 56.02355469 -7.34257812 56.01195312 -8 56 C-8.83377591 53.08905187 -9.12630387 50.50266438 -9.12939453 47.47851562 C-9.13254669 46.59079468 -9.13569885 45.70307373 -9.13894653 44.78845215 C-9.1369223 43.83732544 -9.13489807 42.88619873 -9.1328125 41.90625 C-9.13376923 40.92257446 -9.13472595 39.93889893 -9.13571167 38.92541504 C-9.13639156 36.84757422 -9.13455056 34.76973126 -9.13037109 32.69189453 C-9.12502019 29.51199573 -9.13032255 26.33223816 -9.13671875 23.15234375 C-9.13605793 21.13281219 -9.1347767 19.11328071 -9.1328125 17.09375 C-9.13483673 16.14262329 -9.13686096 15.19149658 -9.13894653 14.21154785 C-9.13579437 13.3238269 -9.13264221 12.43610596 -9.12939453 11.52148438 C-9.12859894 10.74301147 -9.12780334 9.96453857 -9.12698364 9.16247559 C-8.99775651 6.96179437 -8.71111172 5.08728066 -8 3 C-6.15234375 1.953125 -6.15234375 1.953125 -3.9375 1.25 C-2.83728516 0.88648438 -2.83728516 0.88648438 -1.71484375 0.515625 C-1.14894531 0.34546875 -0.58304688 0.1753125 0 0 Z " fill="#393A3A" transform="translate(206,37)"/>
<path d="M0 0 C0.66 0.99 1.32 1.98 2 3 C3.32 3 4.64 3 6 3 C6.47050781 2.50886719 6.94101563 2.01773438 7.42578125 1.51171875 C9 0 9 0 11.48046875 -0.29296875 C12.37378906 -0.25816406 13.26710938 -0.22335938 14.1875 -0.1875 C15.775625 -0.125625 17.36375 -0.06375 19 0 C18.67 3.3 18.34 6.6 18 10 C16.4325 10.2475 14.865 10.495 13.25 10.75 C8.97692851 11.58892223 6.73824107 12.46310528 4 16 C3.34 16.33 2.68 16.66 2 17 C2 20.3 2 23.6 2 27 C-0.38224928 24.61775072 -0.32017149 23.9497963 -0.375 20.6875 C-0.28968505 16.2653416 0.76847043 14.13648458 4 11 C4.66 10.34 5.32 9.68 6 9 C6 8.34 6 7.68 6 7 C4.35 7.66 2.7 8.32 1 9 C-0.485 6.03 -0.485 6.03 -2 3 C-3.65 3 -5.3 3 -7 3 C-6.67 3.99 -6.34 4.98 -6 6 C-5.91312201 7.54970448 -5.8823134 9.10289707 -5.88647461 10.6550293 C-5.88655014 11.59577805 -5.88662567 12.53652679 -5.88670349 13.50578308 C-5.89186478 14.51836685 -5.89702606 15.53095062 -5.90234375 16.57421875 C-5.9037587 17.61318802 -5.90517365 18.65215729 -5.90663147 19.72261047 C-5.91223344 23.04426948 -5.92478628 26.36586133 -5.9375 29.6875 C-5.94251475 31.93815007 -5.9470777 34.18880119 -5.95117188 36.43945312 C-5.96220351 41.95965837 -5.97894357 47.47982439 -6 53 C-3.69 53 -1.38 53 1 53 C1.33 52.01 1.66 51.02 2 50 C2.33 50.66 2.66 51.32 3 52 C2.67 52.99 2.34 53.98 2 55 C-1.3 55 -4.6 55 -8 55 C-8.02505615 53.56688477 -8.0501123 52.13376953 -8.07592773 50.65722656 C-8.17007369 45.34203086 -8.27027703 40.02696365 -8.37231445 34.71191406 C-8.41563606 32.41116338 -8.45731313 30.11038112 -8.49731445 27.80957031 C-8.55508395 24.50315839 -8.61875949 21.196905 -8.68359375 17.890625 C-8.70030624 16.86132874 -8.71701874 15.83203247 -8.73423767 14.77154541 C-8.75418289 13.81085144 -8.77412811 12.85015747 -8.79467773 11.86035156 C-8.81022202 11.01651917 -8.8257663 10.17268677 -8.84178162 9.30328369 C-8.9274985 6.99734035 -8.9274985 6.99734035 -9.57533264 4.82122803 C-10 3 -10 3 -9 1 C-5.98003217 0.45091494 -3.07380605 0 0 0 Z " fill="#333534" transform="translate(80,38)"/>
<path d="M0 0 C-0.165 0.804375 -0.33 1.60875 -0.5 2.4375 C-1.47358302 9.37427902 -1.38137415 15.33215239 1 22 C1.38478516 23.15242188 1.38478516 23.15242188 1.77734375 24.328125 C3.43793614 28.90815467 3.43793614 28.90815467 6.81640625 32.23828125 C8.93200505 33.18646549 8.93200505 33.18646549 12 34 C11.01 34.495 11.01 34.495 10 35 C9.67 35.99 9.34 36.98 9 38 C3.98137719 37.52203592 0.79204204 36.37070403 -3 33 C-4.34621245 30.07564336 -5.23908514 27.12375574 -6 24 C-6.66 24 -7.32 24 -8 24 C-8.33 24.66 -8.66 25.32 -9 26 C-8.88995839 22.41604315 -8.75936703 18.83312083 -8.625 15.25 C-8.5940625 14.23421875 -8.563125 13.2184375 -8.53125 12.171875 C-8.49257812 11.1921875 -8.45390625 10.2125 -8.4140625 9.203125 C-8.3826416 8.30239258 -8.3512207 7.40166016 -8.31884766 6.47363281 C-7.98415659 3.87708616 -7.40223181 2.20146033 -6 0 C-3.40292416 -1.05506206 -2.5386068 -1.2693034 0 0 Z " fill="#3B3C3C" transform="translate(113,54)"/>
<path d="M0 0 C1.43034568 0.80962963 2.85277608 1.63446306 4.25 2.5 C4.25 3.16 4.25 3.82 4.25 4.5 C4.91 4.5 5.57 4.5 6.25 4.5 C9.06532819 9.54140164 10.7688509 13.72621075 11.25 19.5 C10.59 19.5 9.93 19.5 9.25 19.5 C9.09144531 18.93152344 8.93289062 18.36304687 8.76953125 17.77734375 C6.87599787 11.51089904 4.8372002 6.00959369 -0.6875 2.14453125 C-6.69484867 -0.99859939 -12.21141951 -0.99690873 -18.75 0.5 C-21.71048102 1.90381035 -21.71048102 1.90381035 -23.75 3.5 C-24.41 3.5 -25.07 3.5 -25.75 3.5 C-25.75 4.16 -25.75 4.82 -25.75 5.5 C-26.41 5.5 -27.07 5.5 -27.75 5.5 C-27.75 6.49 -27.75 7.48 -27.75 8.5 C-26.43 8.83 -25.11 9.16 -23.75 9.5 C-23.75 8.51 -23.75 7.52 -23.75 6.5 C-19.01004945 3.34003297 -14.33842581 3.36694224 -8.75 3.5 C-8.75 4.16 -8.75 4.82 -8.75 5.5 C-9.42546875 5.57476562 -10.1009375 5.64953125 -10.796875 5.7265625 C-12.13492188 5.92378906 -12.13492188 5.92378906 -13.5 6.125 C-14.38171875 6.24101563 -15.2634375 6.35703125 -16.171875 6.4765625 C-19.94892947 7.97593867 -20.9241391 9.91348752 -22.75 13.5 C-23.44389266 16.2776155 -23.75274634 19.02643177 -24 21.875 C-24.07734375 22.61105469 -24.1546875 23.34710938 -24.234375 24.10546875 C-24.42104528 25.90217018 -24.58761464 27.70094113 -24.75 29.5 C-24.09 29.83 -23.43 30.16 -22.75 30.5 C-23.245 32.975 -23.245 32.975 -23.75 35.5 C-24.41 35.17 -25.07 34.84 -25.75 34.5 C-27.46419458 27.64322167 -27.16148776 20.38100284 -25.75 13.5 C-26.08 13.83 -26.41 14.16 -26.75 14.5 C-28.07 14.5 -29.39 14.5 -30.75 14.5 C-31.98759823 18.21279469 -32.10608897 21.81306346 -32.3125 25.6875 C-32.35568359 26.43708984 -32.39886719 27.18667969 -32.44335938 27.95898438 C-32.54922685 29.80578375 -32.6500976 31.65286834 -32.75 33.5 C-33.41 33.5 -34.07 33.5 -34.75 33.5 C-37.03183495 26.65449516 -35.0500812 15.40578266 -32.0625 8.8125 C-25.1400537 -2.68186047 -11.83928185 -5.94490255 0 0 Z " fill="#303131" transform="translate(137.75,40.5)"/>
<path d="M0 0 C2.05078125 0.03255208 4.1015625 0.06510417 6.15234375 0.09765625 C8.35578887 6.26053433 8.33526908 11.78320924 8.12890625 18.28125 C8.10388031 19.33675552 8.07885437 20.39226105 8.05307007 21.47975159 C7.97127742 24.83189979 7.87453032 28.18342256 7.77734375 31.53515625 C7.7190626 33.81573014 7.66176025 36.09632926 7.60546875 38.37695312 C7.46575923 43.95087681 7.31264184 49.52428821 7.15234375 55.09765625 C3.85234375 55.09765625 0.55234375 55.09765625 -2.84765625 55.09765625 C-2.87229618 47.42553952 -2.89048748 39.7534456 -2.90258789 32.08129883 C-2.90763002 29.46899006 -2.9144635 26.85668414 -2.9230957 24.24438477 C-2.93516661 20.49885357 -2.9408856 16.75335953 -2.9453125 13.0078125 C-2.95047379 11.8317897 -2.95563507 10.65576691 -2.96095276 9.44410706 C-2.96106606 7.82253944 -2.96106606 7.82253944 -2.96118164 6.16821289 C-2.96340225 5.2111293 -2.96562286 4.25404572 -2.96791077 3.26795959 C-2.81752725 0.55390067 -2.72294769 0.14391901 0 0 Z M-1.84765625 4.09765625 C-1.51765625 20.26765625 -1.18765625 36.43765625 -0.84765625 53.09765625 C1.13234375 53.09765625 3.11234375 53.09765625 5.15234375 53.09765625 C5.15234375 36.26765625 5.15234375 19.43765625 5.15234375 2.09765625 C2.72564045 2.09765625 0.45451664 3.33026529 -1.84765625 4.09765625 Z " fill="#2E2F2F" transform="translate(336.84765625,37.90234375)"/>
<path d="M0 0 C2.5 1.5625 2.5 1.5625 4 4 C3.89267703 10.01008624 2.09949241 12.90050759 -2 17 C-3.8125 16.6875 -3.8125 16.6875 -6 16 C-7.66519519 15.65939189 -9.33157466 15.32441604 -11 15 C-11.07347656 14.04287109 -11.07347656 14.04287109 -11.1484375 13.06640625 C-11.22320312 12.24011719 -11.29796875 11.41382813 -11.375 10.5625 C-11.44460938 9.73878906 -11.51421875 8.91507813 -11.5859375 8.06640625 C-11.72257812 7.38449219 -11.85921875 6.70257813 -12 6 C-12.66 5.67 -13.32 5.34 -14 5 C-9.82442585 0.40686844 -6.24591245 -0.66920491 0 0 Z M-9 4 C-8 6 -8 6 -8 6 Z M-5 5 C-4 7 -4 7 -4 7 Z M-2 7 C-2 8.32 -2 9.64 -2 11 C-1.34 11 -0.68 11 0 11 C0 9.68 0 8.36 0 7 C-0.66 7 -1.32 7 -2 7 Z " fill="#303031" transform="translate(368,38)"/>
<path d="M0 0 C0.66 0 1.32 0 2 0 C2.15855469 0.62648438 2.31710938 1.25296875 2.48046875 1.8984375 C3.74629945 7.06367167 3.74629945 7.06367167 7.5 10.4375 C8.325 10.623125 9.15 10.80875 10 11 C10.99 11.66 11.98 12.32 13 13 C14.32 13 15.64 13 17 13 C17 12.01 17 11.02 17 10 C14.05763218 7.78831775 14.05763218 7.78831775 11 6 C11.33 5.34 11.66 4.68 12 4 C12.639375 4.495 13.27875 4.99 13.9375 5.5 C19.12289381 8.03978472 24.52089963 7.54060872 30 6 C29.67 6.66 29.34 7.32 29 8 C28.34 8 27.68 8 27 8 C28.05270463 9.15811388 28.05270463 9.15811388 30 10 C30 10.66 30 11.32 30 12 C35.30380482 10.37939297 37.65795973 7.48277451 40.25 2.6875 C40.4975 2.130625 40.745 1.57375 41 1 C41.66 1.33 42.32 1.66 43 2 C39.22934121 8.6106869 35.63317934 13.74474247 28 16 C19.81346861 17.82278238 13.985469 16.1055308 6.6875 12.25 C3.29079269 9.40624504 1.89109953 7.00040286 0 3 C0 2.01 0 1.02 0 0 Z " fill="#303232" transform="translate(105,78)"/>
<path d="M0 0 C0.33 0.66 0.66 1.32 1 2 C2.65 1.67 4.3 1.34 6 1 C6.33 2.98 6.66 4.96 7 7 C7.37125 6.195625 7.7425 5.39125 8.125 4.5625 C10 2 10 2 13.0625 1.25 C14.031875 1.1675 15.00125 1.085 16 1 C16.66 0.67 17.32 0.34 18 0 C18 0.66 18 1.32 18 2 C18.9590625 1.6596875 18.9590625 1.6596875 19.9375 1.3125 C24.26863621 0.87054733 28.13916156 1.98981139 32 4 C32.495 5.485 32.495 5.485 33 7 C32.38253906 6.77183594 31.76507813 6.54367188 31.12890625 6.30859375 C25.29538277 4.3285698 20.00697168 2.97383892 14 5 C11.22847788 7.52056045 11.22847788 7.52056045 9 10 C5.88810326 9.90847363 4.65325623 8.76883749 2 7 C1.67 6.34 1.34 5.68 1 5 C-0.83479522 10.50760459 -1.33226481 15.4297789 -1.4140625 21.21484375 C-1.43342865 22.07058487 -1.4527948 22.92632599 -1.4727478 23.80799866 C-1.53210914 26.51773383 -1.57875366 29.2275125 -1.625 31.9375 C-1.66321985 33.78452284 -1.70227387 35.63152861 -1.7421875 37.47851562 C-1.83777448 41.98553709 -1.92196424 46.49264188 -2 51 C-2.33 51 -2.66 51 -3 51 C-3 36.48 -3 21.96 -3 7 C-3.66 7 -4.32 7 -5 7 C-4.67 5.02 -4.34 3.04 -4 1 C-2.68 0.67 -1.36 0.34 0 0 Z " fill="#2E2E2E" transform="translate(17,37)"/>
<path d="M0 0 C0.33 0 0.66 0 1 0 C0.41390144 8.49842919 -2.60630928 13.24567835 -9 19 C-12.66704655 21.42211389 -16.1176241 21.33218656 -20.4375 21.375 C-21.73558594 21.40335938 -23.03367187 21.43171875 -24.37109375 21.4609375 C-28.47171375 20.94008372 -30.08135177 19.84554143 -33 17 C-32.9278125 18.02738281 -32.855625 19.05476563 -32.78125 20.11328125 C-31.32260762 41.56466786 -31.32260762 41.56466786 -33 51 C-34.98 51 -36.96 51 -39 51 C-38.67 50.01 -38.34 49.02 -38 48 C-37.01 47.505 -37.01 47.505 -36 47 C-35.67 36.77 -35.34 26.54 -35 16 C-31.49270578 14.83090193 -29.55692677 15.14943055 -26 16 C-25.67 16.66 -25.34 17.32 -25 18 C-17.03255738 18.53825546 -17.03255738 18.53825546 -9.5 16.375 C-4.46285816 11.58971525 -2.21951202 6.43658486 0 0 Z " fill="#2E302F" transform="translate(57,73)"/>
<path d="M0 0 C1.65 0.33 3.3 0.66 5 1 C4.34 1.433125 3.68 1.86625 3 2.3125 C2.34 2.869375 1.68 3.42625 1 4 C1 4.99 1 5.98 1 7 C3.31 7 5.62 7 8 7 C8 7.66 8 8.32 8 9 C8.66 9.33 9.32 9.66 10 10 C9.34 10 8.68 10 8 10 C8.06879247 15.64212236 8.15671735 21.2834976 8.26245117 26.92504883 C8.2957225 28.84456098 8.32374754 30.76417148 8.34643555 32.68383789 C8.37994121 35.44199572 8.43225403 38.19925043 8.48828125 40.95703125 C8.49467117 41.81649857 8.5010611 42.67596588 8.50764465 43.56147766 C8.53733589 44.76238289 8.53733589 44.76238289 8.56762695 45.98754883 C8.57873001 46.6914827 8.58983307 47.39541656 8.60127258 48.12068176 C9.11720846 50.55243757 10.09391238 51.45276908 12 53 C15.00520003 54.05434539 18.08945743 54.27139739 21.25 54.5625 C22.14203125 54.64628906 23.0340625 54.73007813 23.953125 54.81640625 C24.62859375 54.87699219 25.3040625 54.93757813 26 55 C22.27661917 57.48225389 19.31288496 57.53094228 15 57 C10.80101959 55.41547909 8.15773081 53.95577479 6 50 C5.58578093 46.87758394 5.65145605 43.78544053 5.70703125 40.640625 C5.71127609 39.73624695 5.71552094 38.8318689 5.71989441 37.90008545 C5.73666426 35.01641861 5.77431331 32.133455 5.8125 29.25 C5.82754903 27.29297886 5.84123705 25.33594674 5.85351562 23.37890625 C5.88656226 18.58566725 5.93833295 13.79295279 6 9 C3.36 9 0.72 9 -2 9 C-1.34 6.03 -0.68 3.06 0 0 Z " fill="#323433" transform="translate(295,38)"/>
<path d="M0 0 C1.27311801 3.56328779 0.72305799 5.51413061 -0.65234375 8.984375 C-1.01650391 9.91894531 -1.38066406 10.85351562 -1.75585938 11.81640625 C-2.14580078 12.78449219 -2.53574219 13.75257812 -2.9375 14.75 C-3.51661133 16.22533203 -3.51661133 16.22533203 -4.10742188 17.73046875 C-5.06182469 20.15771542 -6.02628635 22.58044991 -7 25 C-7.99 24.67 -8.98 24.34 -10 24 C-9.67 23.01 -9.34 22.02 -9 21 C-9.66 20.67 -10.32 20.34 -11 20 C-10.505 18.515 -10.505 18.515 -10 17 C-9.47484014 15.27214241 -8.9543603 13.54285839 -8.4375 11.8125 C-8.16808594 10.91144531 -7.89867187 10.01039062 -7.62109375 9.08203125 C-7.41613281 8.39496094 -7.21117187 7.70789062 -7 7 C-7.99 6.67 -8.98 6.34 -10 6 C-8.625 4.5 -8.625 4.5 -7 3 C-6.34 3 -5.68 3 -5 3 C-5 2.34 -5 1.68 -5 1 C-3.35 0.67 -1.7 0.34 0 0 Z " fill="#3B3D3C" transform="translate(260,40)"/>
<path d="M0 0 C2.8125 1.5625 2.8125 1.5625 4.4375 4.375 C4.8125 7.5625 4.8125 7.5625 3.375 10.4375 C0.8125 12.5625 0.8125 12.5625 -2.75 13.125 C-6.1875 12.5625 -6.1875 12.5625 -8.1875 10.9375 C-9.56831215 7.65807116 -9.32871708 5.91482517 -8.1875 2.5625 C-5.25025498 -0.12298116 -3.95851342 -0.54332537 0 0 Z " fill="#59718B" transform="translate(281.1875,17.4375)"/>
<path d="M0 0 C2.75 1.3125 2.75 1.3125 3.75 3.3125 C4.125 6.1875 4.125 6.1875 3.75 9.3125 C1.625 11.8125 1.625 11.8125 -1.25 13.3125 C-4.4375 12.75 -4.4375 12.75 -7.25 11.3125 C-9.25 8.3125 -9.25 8.3125 -9.1875 5.3125 C-8.25 2.3125 -8.25 2.3125 -6.0625 0.3125 C-3.25 -0.6875 -3.25 -0.6875 0 0 Z " fill="#59708A" transform="translate(205.25,17.6875)"/>
<path d="M0 0 C0.29296875 6.0546875 0.29296875 6.0546875 0 8 C-3.49124017 10.32749345 -4.89222251 10.50299316 -9 10 C-11.83171242 7.98799381 -12.84987863 6.87928233 -13.4375 3.4375 C-12.9201684 0.55522394 -12.3649042 -0.31078271 -10 -2 C-6.04868098 -3.90753332 -3.58701027 -2.03807401 0 0 Z " fill="#5C7B9A" transform="translate(345,20)"/>
<path d="M0 0 C0.99 0.66 1.98 1.32 3 2 C2.67 2.66 2.34 3.32 2 4 C1.484375 3.67 0.96875 3.34 0.4375 3 C-4.89852904 0.81085988 -9.79563275 1.96902742 -15 4 C-15 4.99 -15 5.98 -15 7 C-15.99 7 -16.98 7 -18 7 C-17.91621094 8.19496094 -17.83242188 9.38992187 -17.74609375 10.62109375 C-16.71688429 26.30130573 -16.71688429 26.30130573 -18 34 C-17.34 34.33 -16.68 34.66 -16 35 C-14.31337542 36.64646685 -12.64488294 38.31183067 -11 40 C-14.27913993 39.63565112 -16.62645167 38.2951779 -18.9152832 35.92407227 C-21.48487729 31.36612245 -20.79298517 25.64281006 -20.75 20.5625 C-20.78609375 19.34755859 -20.8221875 18.13261719 -20.859375 16.88085938 C-20.859375 8.20180479 -20.859375 8.20180479 -18.47436523 4.86645508 C-16.71532483 3.33766398 -15.0298451 2.13675875 -13 1 C-11.7934375 0.2884375 -11.7934375 0.2884375 -10.5625 -0.4375 C-6.74930252 -1.27454335 -3.84357492 -0.74391773 0 0 Z " fill="#2E302F" transform="translate(42,46)"/>
<path d="M0 0 C0.66 1.32 1.32 2.64 2 4 C5.3 4 8.6 4 12 4 C12 6.31 12 8.62 12 11 C9.72975032 11.08097324 7.45867925 11.13917704 5.1875 11.1875 C3.29064453 11.23970703 3.29064453 11.23970703 1.35546875 11.29296875 C-2 11 -2 11 -3.94921875 9.48828125 C-4.29597656 8.99714844 -4.64273437 8.50601563 -5 8 C-3.375 2.25 -3.375 2.25 0 0 Z " fill="#343635" transform="translate(311,82)"/>
<path d="M0 0 C3 1 3 1 3.94921875 2.86328125 C5.92898971 9.43109285 8.22752115 18.54495771 5 25 C5.33 25.99 5.66 26.98 6 28 C3.97721874 31.84024261 1.29737762 35.18060361 -2.375 37.5 C-5.98228378 38.18710167 -9.32885311 38.12444566 -13 38 C-13.33 37.34 -13.66 36.68 -14 36 C-13.33613281 35.97421875 -12.67226563 35.9484375 -11.98828125 35.921875 C-7.86072339 35.6567472 -4.70218301 35.36572032 -1 33.4375 C3.90322838 27.46169041 3.51953303 19.3651447 3 12 C2.13366303 5.81484213 2.13366303 5.81484213 0 0 Z " fill="#313333" transform="translate(45,50)"/>
<path d="M0 0 C0.33 0 0.66 0 1 0 C1.33 6.93 1.66 13.86 2 21 C5.9473552 21.78947104 9.04287849 22.09202608 13 22 C13.6875 24.3125 13.6875 24.3125 14 27 C12.62486569 29.02651373 11.51687307 29.79694272 9.25 30.6875 C4.47100134 31.35124981 1.09135816 31.72757211 -3 29 C-2.34 28.67 -1.68 28.34 -1 28 C-0.01 28.33 0.98 28.66 2 29 C4.33882138 28.70764733 6.67284 28.37400786 9 28 C9.99 28 10.98 28 12 28 C12 27.01 12 26.02 12 25 C11.34 25 10.68 25 10 25 C9.67 25.66 9.34 26.32 9 27 C9 26.34 9 25.68 9 25 C7.906875 24.896875 6.81375 24.79375 5.6875 24.6875 C1.03937999 23.82090135 1.03937999 23.82090135 -1 21 C-1.2487793 18.73168945 -1.2487793 18.73168945 -1.07421875 16.11328125 C-1.01943359 15.17548828 -0.96464844 14.23769531 -0.90820312 13.27148438 C-0.79895508 11.80678711 -0.79895508 11.80678711 -0.6875 10.3125 C-0.62626953 9.32443359 -0.56503906 8.33636719 -0.50195312 7.31835938 C-0.34867116 4.87763881 -0.18082846 2.43880911 0 0 Z " fill="#2D2E2D" transform="translate(173,64)"/>
<path d="M0 0 C0.33 0 0.66 0 1 0 C1.01458252 1.12494873 1.02916504 2.24989746 1.04418945 3.40893555 C1.10227754 7.59317387 1.17950964 11.77687997 1.26245117 15.96069336 C1.29565114 17.76952458 1.32369841 19.57845818 1.34643555 21.38745117 C1.38007258 23.99181633 1.43239195 26.5952476 1.48828125 29.19921875 C1.49467117 30.00461594 1.5010611 30.81001312 1.50764465 31.63981628 C1.62777227 36.25462978 2.12616014 39.18271096 5 43 C2.74978067 42.09991227 1.30156036 41.43204064 -0.10253906 39.42041016 C-1.37153046 35.99799972 -1.39732309 32.63078011 -1.484375 29.0234375 C-1.5084845 28.25697906 -1.53259399 27.49052063 -1.55743408 26.70083618 C-1.60561561 25.08552055 -1.64903186 23.47005663 -1.68798828 21.85449219 C-1.74996784 19.37628596 -1.8329946 16.89938735 -1.91796875 14.421875 C-1.96220417 12.85159767 -2.00521529 11.28128527 -2.046875 9.7109375 C-2.07279724 8.96822601 -2.09871948 8.22551453 -2.12542725 7.46029663 C-2.16173402 5.64007968 -2.08993173 3.81835646 -2 2 C-1.34 1.34 -0.68 0.68 0 0 Z " fill="#2F3130" transform="translate(165,50)"/>
<path d="M0 0 C1.67542976 0.28604898 3.34385343 0.61781233 5 1 C5 1.66 5 2.32 5 3 C6.32 3.33 7.64 3.66 9 4 C8.34 4.66 7.68 5.32 7 6 C6.97624074 7.9931567 6.97624074 7.9931567 7.375 10.125 C7.58125 11.40375 7.7875 12.6825 8 14 C6.35 13.67 4.7 13.34 3 13 C3.33 11.68 3.66 10.36 4 9 C2.68 9 1.36 9 0 9 C-0.87890625 2.84765625 -0.87890625 2.84765625 -1 1 C-0.67 0.67 -0.34 0.34 0 0 Z " fill="#3B3E3D" transform="translate(229,67)"/>
<path d="M0 0 C1.65 0.33 3.3 0.66 5 1 C5 2.65 5 4.3 5 6 C4.34 6 3.68 6 3 6 C2.89816406 6.65355469 2.79632813 7.30710937 2.69140625 7.98046875 C1.7920704 11.90807673 0.38367698 15.55780849 -1.0625 19.3125 C-1.34416016 20.05306641 -1.62582031 20.79363281 -1.91601562 21.55664062 C-2.60718575 23.37242655 -3.30311689 25.18639899 -4 27 C-4.66 27 -5.32 27 -6 27 C-4.18720822 20.66896205 -2.13156508 14.49602146 0.23046875 8.34765625 C1.15574023 5.93663377 1.15574023 5.93663377 1 3 C-0.65 3 -2.3 3 -4 3 C-4 3.66 -4 4.32 -4 5 C-4.66 5 -5.32 5 -6 5 C-5.67 4.01 -5.34 3.02 -5 2 C-3.35 2 -1.7 2 0 2 C0 1.34 0 0.68 0 0 Z " fill="#2F302F" transform="translate(259,38)"/>
<path d="M0 0 C6.25925926 -0.48148148 6.25925926 -0.48148148 9.5 1.625 C11 4 11 4 10.75 7.25 C10.5025 8.1575 10.255 9.065 10 10 C9.34 9.67 8.68 9.34 8 9 C8 8.34 8 7.68 8 7 C7.01 7 6.02 7 5 7 C4.67 8.32 4.34 9.64 4 11 C2.68 10.34 1.36 9.68 0 9 C0.185625 8.071875 0.37125 7.14375 0.5625 6.1875 C1.24123881 2.98656229 1.24123881 2.98656229 0 0 Z M2 5 C3 7 3 7 3 7 Z " fill="#363636" transform="translate(361,38)"/>
<path d="M0 0 C0.93797519 2.47496881 1.77744996 4.91462407 2.5625 7.4375 C4.03528155 12.31497946 4.03528155 12.31497946 6 17 C4.02 16.67 2.04 16.34 0 16 C0.66 15.67 1.32 15.34 2 15 C1.2884375 13.4221875 1.2884375 13.4221875 0.5625 11.8125 C-0.69323741 8.89824149 -1.52234381 6.15253086 -2 3 C-3.98 3 -5.96 3 -8 3 C-8 3.66 -8 4.32 -8 5 C-7.34 5.33 -6.68 5.66 -6 6 C-6.33 7.32 -6.66 8.64 -7 10 C-7.99 9.67 -8.98 9.34 -10 9 C-10 6.69 -10 4.38 -10 2 C-8.71211992 1.46987262 -7.41953322 0.9511671 -6.125 0.4375 C-5.40570313 0.14746094 -4.68640625 -0.14257812 -3.9453125 -0.44140625 C-2 -1 -2 -1 0 0 Z " fill="#313231" transform="translate(226,38)"/>
<path d="M0 0 C0.66 0 1.32 0 2 0 C1.67 5.61 1.34 11.22 1 17 C2.94112319 18.07295604 2.94112319 18.07295604 5 18.4375 C7 19 7 19 9 21 C7.52093108 21.02689216 6.04172517 21.04634621 4.5625 21.0625 C3.32693359 21.07990234 3.32693359 21.07990234 2.06640625 21.09765625 C0 21 0 21 -1 20 C-1.09860131 18.59651265 -1.13078937 17.18819523 -1.1328125 15.78125 C-1.13410156 14.93175781 -1.13539063 14.08226563 -1.13671875 13.20703125 C-1.13285156 12.31371094 -1.12898438 11.42039062 -1.125 10.5 C-1.12886719 9.60667969 -1.13273437 8.71335937 -1.13671875 7.79296875 C-1.13542969 6.94347656 -1.13414062 6.09398438 -1.1328125 5.21875 C-1.13168457 4.43435547 -1.13055664 3.64996094 -1.12939453 2.84179688 C-1 1 -1 1 0 0 Z " fill="#2E2F2E" transform="translate(274,72)"/>
<path d="M0 0 C1.65 0 3.3 0 5 0 C4.798422 1.94056433 4.56268261 3.87760148 4.3125 5.8125 C4.18488281 6.89144531 4.05726563 7.97039062 3.92578125 9.08203125 C3 12 3 12 0.41796875 13.88671875 C-0.37996094 14.25410156 -1.17789063 14.62148437 -2 15 C-2.625 12.125 -2.625 12.125 -3 9 C-2.34 8.34 -1.68 7.68 -1 7 C-0.67 6.01 -0.34 5.02 0 4 C-0.33 3.34 -0.66 2.68 -1 2 C-0.67 1.34 -0.34 0.68 0 0 Z " fill="#3B3E3D" transform="translate(245,70)"/>
<path d="M0 0 C-1.98 0.33 -3.96 0.66 -6 1 C-7.00217064 4.58327753 -7.00217064 4.58327753 -6 8 C-3.67843403 8.40729228 -1.3431213 8.74438677 1 9 C1 6.03 1 3.06 1 0 C1.66 0.33 2.32 0.66 3 1 C3.29296875 7.0546875 3.29296875 7.0546875 3 9 C-0.49124017 11.32749345 -1.89222251 11.50299316 -6 11 C-8.83171242 8.98799381 -9.84987863 7.87928233 -10.4375 4.4375 C-9.9201684 1.55522394 -9.3649042 0.68921729 -7 -1 C-3.55217092 -2.40068056 -3.29507551 -2.19671701 0 0 Z " fill="#54667C" transform="translate(342,19)"/>
<path d="M0 0 C0.33 0.66 0.66 1.32 1 2 C4.465 1.505 4.465 1.505 8 1 C7.67 1.66 7.34 2.32 7 3 C5.68 3 4.36 3 3 3 C2.6648342 5.12471175 2.33192171 7.24977905 2 9.375 C1.814375 10.55835938 1.62875 11.74171875 1.4375 12.9609375 C0.95250335 15.81820008 0.95250335 15.81820008 1 18 C0.34 18 -0.32 18 -1 18 C-1.22181406 15.56304285 -1.42791119 13.126474 -1.625 10.6875 C-1.68945312 9.99720703 -1.75390625 9.30691406 -1.8203125 8.59570312 C-2.11802847 4.7440028 -2.20763723 3.31145584 0 0 Z " fill="#2D2E2D" transform="translate(302,22)"/>
<path d="M0 0 C2.64 0 5.28 0 8 0 C7.34 2.31 6.68 4.62 6 7 C4.35 7 2.7 7 1 7 C-0.0625 5.1875 -0.0625 5.1875 -1 3 C-0.67 2.01 -0.34 1.02 0 0 Z " fill="#313232" transform="translate(179,40)"/>
<path d="M0 0 C0.66 0 1.32 0 2 0 C2.15855469 0.62648438 2.31710938 1.25296875 2.48046875 1.8984375 C3.69569681 6.90904495 3.69569681 6.90904495 7.1875 10.3125 C8.115625 10.539375 9.04375 10.76625 10 11 C11.45019361 11.68196837 12.88729076 12.39225108 14.3125 13.125 C15.00988281 13.47820312 15.70726563 13.83140625 16.42578125 14.1953125 C17.20501953 14.59363281 17.20501953 14.59363281 18 15 C15.55086524 15.88302138 14.32476343 16.1063179 11.81640625 15.28515625 C6.18080277 12.22806112 2.50428652 9.01532139 0 3 C0 2.01 0 1.02 0 0 Z " fill="#2B2C2C" transform="translate(105,78)"/>
<path d="M0 0 C3.3 0 6.6 0 10 0 C10 1.32 10 2.64 10 4 C6.7 4 3.4 4 0 4 C0 2.68 0 1.36 0 0 Z " fill="#3B3D3C" transform="translate(311,89)"/>
<path d="M0 0 C0 0.66 0 1.32 0 2 C-0.969375 2.433125 -1.93875 2.86625 -2.9375 3.3125 C-6.27731765 4.7014861 -6.27731765 4.7014861 -7 8 C-7.66 8 -8.32 8 -9 8 C-9 11.3 -9 14.6 -9 18 C-11.38224928 15.61775072 -11.32017149 14.9497963 -11.375 11.6875 C-11.3029978 8.24247174 -11.05980638 7.09692758 -9.1875 4.0625 C-5.8890794 0.95256057 -4.64764688 0 0 0 Z " fill="#2F3131" transform="translate(91,47)"/>
<path d="M0 0 C2.00720923 0.28674418 4.0085944 0.61866701 6 1 C6.33 3.31 6.66 5.62 7 8 C5.35 8.33 3.7 8.66 2 9 C1.34 8.01 0.68 7.02 0 6 C0.33 5.01 0.66 4.02 1 3 C0.34 2.34 -0.32 1.68 -1 1 C-0.67 0.67 -0.34 0.34 0 0 Z " fill="#5E7A9A" transform="translate(201,20)"/>
<path d="M0 0 C1.875 0.3125 1.875 0.3125 4 1 C4.66 1.99 5.32 2.98 6 4 C5.01 4 4.02 4 3 4 C3 4.66 3 5.32 3 6 C3.66 6.33 4.32 6.66 5 7 C4.67 7.66 4.34 8.32 4 9 C2.68 9 1.36 9 0 9 C-0.84454356 5.62182575 -1.10844919 3.32534757 0 0 Z " fill="#5B7CA0" transform="translate(278,19)"/>
<path d="M0 0 C0.66 0.33 1.32 0.66 2 1 C2.02718316 3.85423192 2.04692705 6.70820015 2.0625 9.5625 C2.07087891 10.36236328 2.07925781 11.16222656 2.08789062 11.98632812 C2.10742247 16.77163104 1.80437018 21.28145051 1 26 C-0.98 26 -2.96 26 -5 26 C-4.505 24.515 -4.505 24.515 -4 23 C-3.01 23 -2.02 23 -1 23 C-0.67 15.41 -0.34 7.82 0 0 Z " fill="#222222" transform="translate(23,98)"/>
<path d="M0 0 C0.66 0 1.32 0 2 0 C1.67 6.6 1.34 13.2 1 20 C0.34 20 -0.32 20 -1 20 C-1.97961897 17.06114308 -2.03775226 15.94241475 -1.66015625 12.98828125 C-1.56669922 12.23095703 -1.47324219 11.47363281 -1.37695312 10.69335938 C-1.27318359 9.90767578 -1.16941406 9.12199219 -1.0625 8.3125 C-0.96259766 7.51521484 -0.86269531 6.71792969 -0.75976562 5.89648438 C-0.51251153 3.93022565 -0.25704363 1.96500294 0 0 Z " fill="#2C2F2E" transform="translate(104,54)"/>
<path d="M0 0 C0.99 0.33 1.98 0.66 3 1 C-1.01280683 7.38633938 -1.01280683 7.38633938 -4.3125 9.4375 C-7.95331105 10.19953022 -11.28173728 10.1260428 -15 10 C-15.33 9.34 -15.66 8.68 -16 8 C-15.33613281 7.97421875 -14.67226563 7.9484375 -13.98828125 7.921875 C-8.51393662 7.57023826 -4.8830784 7.25886018 -1 3 C-0.67 2.01 -0.34 1.02 0 0 Z " fill="#2B2E2D" transform="translate(47,78)"/>
<path d="M0 0 C2.21953964 2.21953964 2.91824754 3.91053654 4.0625 6.8125 C4.40410156 7.66457031 4.74570313 8.51664063 5.09765625 9.39453125 C5.97304209 11.92216051 6.54163483 14.36794434 7 17 C6.34 17.33 5.68 17.66 5 18 C0.77676538 6.47835991 0.77676538 6.47835991 -1 1 C-0.67 0.67 -0.34 0.34 0 0 Z " fill="#292A2A" transform="translate(223,58)"/>
<path d="M0 0 C0.7425 0.639375 1.485 1.27875 2.25 1.9375 C6.91780563 5.12829467 12.52688507 4.82287654 18 5 C14.27993273 7.48004485 11.31020129 7.53775668 7 7 C2.9773783 5.43564712 1.40850891 4.61276337 -1 1 C-0.67 0.67 -0.34 0.34 0 0 Z " fill="#272727" transform="translate(303,88)"/>
<path d="M0 0 C1.66611905 -0.042721 3.33382885 -0.04063832 5 0 C6 1 6 1 6.0625 3.5625 C6.041875 4.366875 6.02125 5.17125 6 6 C5.34 6 4.68 6 4 6 C4 7.98 4 9.96 4 12 C3.34 12 2.68 12 2 12 C0.71428571 4.57142857 0.71428571 4.57142857 2 1 C1.34 0.67 0.68 0.34 0 0 Z M4 1 C5 4 5 4 5 4 Z " fill="#2F2F2F" transform="translate(279,38)"/>
<path d="M0 0 C0.99 0.33 1.98 0.66 3 1 C3 1.66 3 2.32 3 3 C3.99 2.67 4.98 2.34 6 2 C6.33 2.99 6.66 3.98 7 5 C8.65 5 10.3 5 12 5 C12 5.66 12 6.32 12 7 C8.94928825 7.287803 6.03939738 7.4472872 3 7 C0.89638304 4.5776532 0 3.21754366 0 0 Z " fill="#2D2E2E" transform="translate(232,87)"/>
<path d="M0 0 C0.93423645 3.01031744 1.04449911 3.86650268 0 7 C1.98 7 3.96 7 6 7 C6.33 7.99 6.66 8.98 7 10 C-0.502457 9.51597052 -0.502457 9.51597052 -2.6875 7.25 C-3.13329713 4.04026066 -1.84702559 2.55742005 0 0 Z " fill="#303131" transform="translate(159,38)"/>
<path d="M0 0 C0.33 0.99 0.66 1.98 1 3 C-1.31 3.33 -3.62 3.66 -6 4 C-6 4.66 -6 5.32 -6 6 C-5.34 6.33 -4.68 6.66 -4 7 C-4.33 8.32 -4.66 9.64 -5 11 C-5.99 10.67 -6.98 10.34 -8 10 C-8 7.69 -8 5.38 -8 3 C-5.36 2.01 -2.72 1.02 0 0 Z " fill="#282828" transform="translate(224,37)"/>
<path d="M0 0 C3.63 0 7.26 0 11 0 C10.67 0.66 10.34 1.32 10 2 C7.27734375 2.6328125 7.27734375 2.6328125 3.9375 3.125 C2.83277344 3.29257812 1.72804688 3.46015625 0.58984375 3.6328125 C-0.69212891 3.81457031 -0.69212891 3.81457031 -2 4 C-1.34 2.68 -0.68 1.36 0 0 Z M-5 3 C-4.01 3.33 -3.02 3.66 -2 4 C-2 4.66 -2 5.32 -2 6 C-2.99 5.67 -3.98 5.34 -5 5 C-5 4.34 -5 3.68 -5 3 Z " fill="#282928" transform="translate(88,38)"/>
<path d="M0 0 C0.66 0 1.32 0 2 0 C1.91266424 1.60517097 1.80447776 3.20921662 1.6875 4.8125 C1.62949219 5.70582031 1.57148438 6.59914063 1.51171875 7.51953125 C0.9290745 10.34379918 0.3289646 11.33487329 -2 13 C-2.99 13 -3.98 13 -5 13 C-4.07325251 10.21975752 -3.03167981 7.53030147 -1.9375 4.8125 C-1.57527344 3.91144531 -1.21304688 3.01039062 -0.83984375 2.08203125 C-0.56269531 1.39496094 -0.28554687 0.70789062 0 0 Z " fill="#2D2E2E" transform="translate(246,61)"/>
<path d="M0 0 C1.8125 0.5 1.8125 0.5 4 2 C6.12573597 6.03800891 7 9.42577494 7 14 C6.34 14 5.68 14 5 14 C4.80664062 13.40832031 4.61328125 12.81664062 4.4140625 12.20703125 C3.05585281 8.0853355 1.67949415 4.0049476 0 0 Z " fill="#303231" transform="translate(142,46)"/>
<path d="M0 0 C1.60568666 0.28317926 3.20952047 0.57687791 4.8125 0.875 C6.15248047 1.11863281 6.15248047 1.11863281 7.51953125 1.3671875 C10 2 10 2 13 4 C13 4.66 13 5.32 13 6 C11.39566191 5.52140759 9.79153584 5.04210442 8.1875 4.5625 C7.29417969 4.29566406 6.40085937 4.02882813 5.48046875 3.75390625 C3.64526945 3.19612127 1.81966274 2.60655425 0 2 C0 1.34 0 0.68 0 0 Z " fill="#2F2F2F" transform="translate(37,38)"/>
<path d="M0 0 C0 1.98 0 3.96 0 6 C-0.66 6 -1.32 6 -2 6 C-2 4.68 -2 3.36 -2 2 C-4.31 2 -6.62 2 -9 2 C-9.33 1.34 -9.66 0.68 -10 0 C-2.25 -1.125 -2.25 -1.125 0 0 Z " fill="#2C2D2C" transform="translate(323,87)"/>
<path d="M0 0 C1.51706494 3.03412988 0.28825065 4.90636849 -0.75 8.0625 C-1.09546875 9.14660156 -1.4409375 10.23070313 -1.796875 11.34765625 C-2.19390625 12.22292969 -2.5909375 13.09820312 -3 14 C-3.99 14.33 -4.98 14.66 -6 15 C-3.10933941 4.44191344 -3.10933941 4.44191344 0 0 Z " fill="#2D2F2F" transform="translate(253,66)"/>
<path d="M0 0 C0.33 0.99 0.66 1.98 1 3 C-1.97 3 -4.94 3 -8 3 C-8.33 4.32 -8.66 5.64 -9 7 C-9.66 5.02 -10.32 3.04 -11 1 C-5.555 0.505 -5.555 0.505 0 0 Z " fill="#2B2D2C" transform="translate(320,44)"/>
<path d="M0 0 C0.99 0.495 0.99 0.495 2 1 C2.4140625 3.50390625 2.4140625 3.50390625 2.625 6.5625 C2.69976562 7.57441406 2.77453125 8.58632812 2.8515625 9.62890625 C2.92503906 10.80259766 2.92503906 10.80259766 3 12 C2.01 12.33 1.02 12.66 0 13 C0 8.71 0 4.42 0 0 Z " fill="#2A2C2C" transform="translate(57,59)"/>
<path d="M0 0 C0.99 0.33 1.98 0.66 3 1 C3.73046875 2.84765625 3.73046875 2.84765625 4.1875 5.0625 C4.34605469 5.79597656 4.50460938 6.52945313 4.66796875 7.28515625 C4.83232422 8.13400391 4.83232422 8.13400391 5 9 C4.34 9 3.68 9 3 9 C1.66666667 7.66666667 0.33333333 6.33333333 -1 5 C-0.625 2.375 -0.625 2.375 0 0 Z " fill="#323434" transform="translate(231,61)"/>
<path d="M0 0 C1.8871875 0.0309375 1.8871875 0.0309375 3.8125 0.0625 C3.8125 0.7225 3.8125 1.3825 3.8125 2.0625 C3.11382812 2.19527344 2.41515625 2.32804687 1.6953125 2.46484375 C0.78523438 2.64144531 -0.12484375 2.81804688 -1.0625 3 C-1.96742187 3.17402344 -2.87234375 3.34804688 -3.8046875 3.52734375 C-6.18706317 3.96213701 -6.18706317 3.96213701 -8.1875 5.0625 C-7.875 3.125 -7.875 3.125 -7.1875 1.0625 C-4.43671116 0.14557039 -2.82801087 -0.04636083 0 0 Z " fill="#2D302E" transform="translate(125.1875,43.9375)"/>
<path d="M0 0 C1.65 0.33 3.3 0.66 5 1 C4.34 1.433125 3.68 1.86625 3 2.3125 C2.34 2.869375 1.68 3.42625 1 4 C1 4.99 1 5.98 1 7 C1.99 7.33 2.98 7.66 4 8 C2.02 8.33 0.04 8.66 -2 9 C-1.34 6.03 -0.68 3.06 0 0 Z " fill="#292A29" transform="translate(295,38)"/>
<path d="M0 0 C1.32 0.33 2.64 0.66 4 1 C4.625 2.875 4.625 2.875 5 5 C4.34 5.66 3.68 6.32 3 7 C2.67 6.01 2.34 5.02 2 4 C0.68 4 -0.64 4 -2 4 C-2 3.34 -2 2.68 -2 2 C-1.34 2 -0.68 2 0 2 C0 1.34 0 0.68 0 0 Z " fill="#252525" transform="translate(170,21)"/>
<path d="M0 0 C0.99 1.32 1.98 2.64 3 4 C1.4198632 6.15473199 -0.10646634 8.10646634 -2 10 C-2.99 9.01 -3.98 8.02 -5 7 C-3.35 6.34 -1.7 5.68 0 5 C0 3.35 0 1.7 0 0 Z " fill="#212121" transform="translate(368,45)"/>
<path d="M0 0 C0.99 0.66 1.98 1.32 3 2 C3.1875 5.125 3.1875 5.125 3 8 C2.01 8 1.02 8 0 8 C0 6.68 0 5.36 0 4 C-0.66 3.67 -1.32 3.34 -2 3 C-1.34 2.01 -0.68 1.02 0 0 Z " fill="#363637" transform="translate(356,40)"/>
<path d="M0 0 C1.65 0.33 3.3 0.66 5 1 C4.67 1.99 4.34 2.98 4 4 C3.01 3.67 2.02 3.34 1 3 C-0.66621616 2.96125079 -2.33394172 2.9549714 -4 3 C-4 3.66 -4 4.32 -4 5 C-4.66 5 -5.32 5 -6 5 C-5.67 4.01 -5.34 3.02 -5 2 C-3.35 2 -1.7 2 0 2 C0 1.34 0 0.68 0 0 Z " fill="#242525" transform="translate(259,38)"/>
<path d="M0 0 C1.65 0 3.3 0 5 0 C4.67 1.32 4.34 2.64 4 4 C3.34 4 2.68 4 2 4 C1.67 4.66 1.34 5.32 1 6 C-0.0625 4.125 -0.0625 4.125 -1 2 C-0.67 1.34 -0.34 0.68 0 0 Z " fill="#3C3E3D" transform="translate(179,41)"/>
<path d="M0 0 C0.66 0.66 1.32 1.32 2 2 C1.34 2 0.68 2 0 2 C-0.33 3.65 -0.66 5.3 -1 7 C-1.66 7 -2.32 7 -3 7 C-3.33 5.02 -3.66 3.04 -4 1 C-2.125 0.375 -2.125 0.375 0 0 Z " fill="#2F3231" transform="translate(233,75)"/>
<path d="M0 0 C0.66 0.33 1.32 0.66 2 1 C2 3.64 2 6.28 2 9 C1.34 9 0.68 9 0 9 C0 6 0 3 0 0 Z " fill="#2E2F2F" transform="translate(148,61)"/>
<path d="M0 0 C0.93423645 3.01031744 1.04449911 3.86650268 0 7 C-0.99 7.33 -1.98 7.66 -3 8 C-3 4.42424104 -1.91159393 2.94704065 0 0 Z " fill="#282929" transform="translate(97,41)"/>
<path d="M0 0 C0.66 0.99 1.32 1.98 2 3 C1.21625 3.309375 0.4325 3.61875 -0.375 3.9375 C-2.92330128 4.92875038 -2.92330128 4.92875038 -5 6 C-4.67 4.35 -4.34 2.7 -4 1 C-2.68 0.67 -1.36 0.34 0 0 Z " fill="#1B1B1B" transform="translate(17,37)"/>
<path d="M0 0 C2.875 0.625 2.875 0.625 6 2 C7.375 5.125 7.375 5.125 8 8 C7.01 8.495 7.01 8.495 6 9 C5.7525 8.2575 5.505 7.515 5.25 6.75 C3.90852699 3.79875938 2.39094474 2.15185026 0 0 Z " fill="#5B697C" transform="translate(278,17)"/>
<path d="M0 0 C0.99 0.33 1.98 0.66 3 1 C2.67 3.31 2.34 5.62 2 8 C1.67 7.34 1.34 6.68 1 6 C0.34 5.67 -0.32 5.34 -1 5 C-0.34 5 0.32 5 1 5 C1 4.34 1 3.68 1 3 C0.34 3 -0.32 3 -1 3 C-0.67 2.01 -0.34 1.02 0 0 Z " fill="#282829" transform="translate(359,39)"/>
<path d="M0 0 C2 1 2 1 2 1 Z " fill="#000000" transform="translate(15,124)"/>
<path d="" fill="#242424" transform="translate(0,0)"/>
<path d="" fill="#000000" transform="translate(0,0)"/>
<path d="" fill="#404040" transform="translate(0,0)"/>
<path d="" fill="#000000" transform="translate(0,0)"/>
<path d="" fill="#000000" transform="translate(0,0)"/>
<path d="" fill="#333333" transform="translate(0,0)"/>
<path d="" fill="#000000" transform="translate(0,0)"/>
<path d="" fill="#000000" transform="translate(0,0)"/>
<path d="" fill="#000000" transform="translate(0,0)"/>
</svg>
